<svg width="131" height="30" viewBox="0 0 131 30" fill="none" xmlns="http://www.w3.org/2000/svg">
<path d="M21.947 9.61542C21.8186 9.23703 21.4774 8.9713 21.079 8.93942L15.378 8.48641L12.911 3.02542C12.7505 2.66611 12.3939 2.43466 12.0004 2.43445C11.6068 2.43423 11.2499 2.66529 11.089 3.02442L8.62203 8.48642L2.92103 8.93942C2.52981 8.97041 2.19289 9.22736 2.05952 9.59645C1.92615 9.96553 2.02099 10.3785 2.30203 10.6524L6.51503 14.7594L5.02503 21.2114C4.93245 21.611 5.09332 22.0267 5.43083 22.2599C5.76833 22.493 6.21401 22.4964 6.55503 22.2684L12 18.6384L17.445 22.2684C17.7939 22.5 18.25 22.49 18.5884 22.2433C18.9268 21.9966 19.0758 21.5654 18.962 21.1624L17.133 14.7624L21.669 10.6804C21.966 10.4124 22.075 9.99442 21.947 9.61542L21.947 9.61542Z" fill="#FAE800"/>
<path d="M52.947 9.61542C52.8186 9.23703 52.4774 8.9713 52.079 8.93942L46.378 8.48641L43.911 3.02542C43.7505 2.66611 43.3939 2.43466 43.0004 2.43445C42.6068 2.43423 42.2499 2.66529 42.089 3.02442L39.622 8.48642L33.921 8.93942C33.5298 8.97041 33.1929 9.22736 33.0595 9.59645C32.9262 9.96553 33.021 10.3785 33.302 10.6524L37.515 14.7594L36.025 21.2114C35.9324 21.611 36.0933 22.0267 36.4308 22.2599C36.7683 22.493 37.214 22.4964 37.555 22.2684L43 18.6384L48.445 22.2684C48.7939 22.5 49.25 22.49 49.5884 22.2433C49.9268 21.9966 50.0758 21.5654 49.962 21.1624L48.133 14.7624L52.669 10.6804C52.966 10.4124 53.075 9.99442 52.947 9.61542L52.947 9.61542Z" fill="#FAE800"/>
<path d="M83.947 9.61542C83.8186 9.23703 83.4774 8.9713 83.079 8.93942L77.378 8.48641L74.911 3.02542C74.7505 2.66611 74.3939 2.43466 74.0004 2.43445C73.6068 2.43423 73.2499 2.66529 73.089 3.02442L70.622 8.48642L64.921 8.93942C64.5298 8.97041 64.1929 9.22736 64.0595 9.59645C63.9262 9.96553 64.021 10.3785 64.302 10.6524L68.515 14.7594L67.025 21.2114C66.9324 21.611 67.0933 22.0267 67.4308 22.2599C67.7683 22.493 68.214 22.4964 68.555 22.2684L74 18.6384L79.445 22.2684C79.7939 22.5 80.25 22.49 80.5884 22.2433C80.9268 21.9966 81.0758 21.5654 80.962 21.1624L79.133 14.7624L83.669 10.6804C83.966 10.4124 84.075 9.99442 83.947 9.61542L83.947 9.61542Z" fill="#FAE800"/>
<path d="M100.79 23.9751C99.6197 23.9751 98.5742 23.7734 97.6537 23.37C96.739 22.9666 96.0145 22.4069 95.4804 21.691C94.952 20.9694 94.6679 20.1342 94.6282 19.1853H97.3043C97.3384 19.7024 97.5117 20.1512 97.8242 20.5319C98.1424 20.9069 98.5572 21.1967 99.0685 21.4012C99.5799 21.6058 100.148 21.708 100.773 21.708C101.461 21.708 102.069 21.5887 102.597 21.3501C103.131 21.1115 103.549 20.7791 103.85 20.3529C104.151 19.9211 104.301 19.424 104.301 18.8615C104.301 18.2762 104.151 17.762 103.85 17.3188C103.554 16.87 103.12 16.5177 102.546 16.262C101.978 16.0063 101.29 15.8785 100.483 15.8785H99.0089V13.7308H100.483C101.131 13.7308 101.699 13.6143 102.188 13.3813C102.682 13.1484 103.069 12.8245 103.347 12.4097C103.625 11.9893 103.765 11.4978 103.765 10.9353C103.765 10.3955 103.642 9.92679 103.398 9.52906C103.159 9.12565 102.819 8.81031 102.375 8.58304C101.938 8.35577 101.421 8.24213 100.824 8.24213C100.256 8.24213 99.7248 8.34725 99.2304 8.55747C98.7418 8.76202 98.3441 9.05747 98.0373 9.44384C97.7304 9.82452 97.5657 10.2819 97.5429 10.816H94.9947C95.0231 9.87281 95.3015 9.04327 95.8299 8.32736C96.364 7.61145 97.0685 7.05179 97.9435 6.64838C98.8185 6.24497 99.7901 6.04327 100.858 6.04327C101.978 6.04327 102.944 6.26202 103.756 6.69952C104.574 7.13134 105.205 7.70804 105.648 8.42963C106.097 9.15122 106.319 9.941 106.313 10.799C106.319 11.7762 106.046 12.6058 105.495 13.2876C104.949 13.9694 104.222 14.4268 103.313 14.6597V14.7961C104.472 14.9722 105.37 15.4325 106.006 16.1768C106.648 16.9211 106.966 17.8444 106.961 18.9467C106.966 19.9069 106.699 20.7677 106.159 21.5291C105.625 22.2904 104.895 22.8899 103.969 23.3274C103.043 23.7592 101.983 23.9751 100.79 23.9751ZM111.38 23.8984C110.914 23.8984 110.513 23.7336 110.178 23.4041C109.843 23.0688 109.675 22.6654 109.675 22.1938C109.675 21.7279 109.843 21.3302 110.178 21.0007C110.513 20.6654 110.914 20.4978 111.38 20.4978C111.846 20.4978 112.246 20.6654 112.581 21.0007C112.917 21.3302 113.084 21.7279 113.084 22.1938C113.084 22.5063 113.005 22.7933 112.846 23.0546C112.692 23.3103 112.488 23.5149 112.232 23.6683C111.976 23.8217 111.692 23.8984 111.38 23.8984ZM121.907 24.0262C120.561 24.0205 119.41 23.6654 118.456 22.9609C117.501 22.2563 116.771 21.2308 116.265 19.8842C115.76 18.5376 115.507 16.9154 115.507 15.0177C115.507 13.1257 115.76 11.5092 116.265 10.1683C116.777 8.82736 117.51 7.80463 118.464 7.10009C119.424 6.39554 120.572 6.04327 121.907 6.04327C123.243 6.04327 124.387 6.39838 125.342 7.10861C126.296 7.81315 127.027 8.83588 127.532 10.1768C128.044 11.512 128.299 13.1257 128.299 15.0177C128.299 16.9211 128.046 18.5461 127.541 19.8927C127.035 21.2336 126.305 22.2592 125.35 22.9694C124.396 23.674 123.248 24.0262 121.907 24.0262ZM121.907 21.7507C123.089 21.7507 124.012 21.174 124.677 20.0205C125.348 18.8671 125.683 17.1995 125.683 15.0177C125.683 13.5688 125.529 12.3444 125.223 11.3444C124.921 10.3387 124.487 9.57736 123.919 9.06031C123.356 8.53759 122.686 8.27622 121.907 8.27622C120.731 8.27622 119.808 8.85577 119.137 10.0149C118.467 11.1739 118.129 12.8416 118.123 15.0177C118.123 16.4722 118.274 17.7024 118.575 18.708C118.882 19.708 119.316 20.4666 119.879 20.9836C120.441 21.495 121.118 21.7507 121.907 21.7507Z" fill="white"/>
</svg>
