<?xml version="1.0" encoding="utf-8"?>
<svg width="654" height="78" viewBox="0 0 654 78" fill="none" xmlns="http://www.w3.org/2000/svg">
  <g id="Group 18">
    <g id="Group 12">
      <g>
        <rect width="24" height="24" />
        <path id="Shape" d="M10.707 2C14.244 2 17.544 3.353 20 5.809L21.414 4.395C18.581 1.561 14.778 0 10.707 0C6.636 0.000999928 2.833 1.561 0 4.395L1.414 5.809C3.87 3.353 7.17 2 10.707 2L10.707 2ZM16.3779 10.307C13.3039 7.23296 8.10989 7.23296 5.03589 10.307L6.44989 11.721C8.75689 9.41397 12.6569 9.41397 14.9639 11.721L16.3779 10.307L16.3779 10.307Z" fill="#757575" fill-rule="evenodd" transform="translate(1.293 4)" />
        <path id="Shape" d="M16.873 3.4305C12.301 -1.1435 4.572 -1.1435 0 3.4305L1.414 4.8445C5.221 1.0375 11.652 1.0375 15.459 4.8445L16.873 3.4305L16.873 3.4305Z" fill="#757575" transform="translate(3.564 7.863)" />
        <path id="Circle" d="M0 2C0 0.89543 0.895431 0 2 0C3.10457 0 4 0.89543 4 2C4 3.10457 3.10457 4 2 4C0.895431 4 0 3.10457 0 2Z" fill="#757575" fill-rule="evenodd" transform="translate(10 16)" />
      </g>
      <path d="M0.969482 10.6562L0.969482 2.65601L5.76587 2.65601L5.76587 3.51538L1.93628 3.51538L1.93628 6.21973L5.40601 6.21973L5.40601 7.0791L1.93628 7.0791L1.93628 10.6562L0.969482 10.6562ZM7.23389 10.6562L7.23389 4.65674L8.12549 4.65674L8.12549 5.56177L8.18726 5.56177Q8.35107 5.11597 8.78076 4.83936Q9.21045 4.56274 9.75024 4.56274Q9.85229 4.56274 10.0027 4.56812Q10.1558 4.5708 10.2336 4.57886L10.2336 5.51611Q10.188 5.50269 10.0215 5.47852Q9.85498 5.45435 9.67236 5.45435Q9.0144 5.45435 8.58472 5.85181Q8.15503 6.24927 8.15503 6.85889L8.15503 10.6562L7.23389 10.6562ZM13.6565 10.7825Q12.7891 10.7825 12.1606 10.3984Q11.5349 10.0117 11.1965 9.31885Q10.8582 8.62598 10.8582 7.70215Q10.8582 6.78101 11.1965 6.07739Q11.5349 5.37109 12.1418 4.97632Q12.7488 4.57886 13.5625 4.57886Q14.0325 4.57886 14.489 4.73462Q14.9456 4.89038 15.3188 5.2395Q15.6948 5.58862 15.9177 6.16333Q16.1406 6.73804 16.1406 7.57861L16.1406 7.96802L11.7847 7.96802Q11.8169 8.92944 12.3298 9.44238Q12.8428 9.95264 13.6565 9.95264Q14.199 9.95264 14.5884 9.71899Q14.9805 9.48535 15.155 9.01538L16.0466 9.26514Q15.8372 9.94458 15.2034 10.3635Q14.5696 10.7825 13.6565 10.7825ZM11.7847 7.1731L15.2034 7.1731Q15.2034 6.4104 14.7576 5.9082Q14.3118 5.40601 13.5625 5.40601Q13.0361 5.40601 12.6494 5.65308Q12.2627 5.89746 12.0398 6.30298Q11.8169 6.70581 11.7847 7.1731ZM20.0627 10.7825Q19.1953 10.7825 18.5669 10.3984Q17.9412 10.0117 17.6028 9.31885Q17.2644 8.62598 17.2644 7.70215Q17.2644 6.78101 17.6028 6.07739Q17.9412 5.37109 18.5481 4.97632Q19.155 4.57886 19.9688 4.57886Q20.4387 4.57886 20.8953 4.73462Q21.3518 4.89038 21.7251 5.2395Q22.1011 5.58862 22.324 6.16333Q22.5469 6.73804 22.5469 7.57861L22.5469 7.96802L18.1909 7.96802Q18.2231 8.92944 18.7361 9.44238Q19.249 9.95264 20.0627 9.95264Q20.6052 9.95264 20.9946 9.71899Q21.3867 9.48535 21.5613 9.01538L22.4529 9.26514Q22.2434 9.94458 21.6096 10.3635Q20.9758 10.7825 20.0627 10.7825ZM18.1909 7.1731L21.6096 7.1731Q21.6096 6.4104 21.1638 5.9082Q20.718 5.40601 19.9688 5.40601Q19.4424 5.40601 19.0557 5.65308Q18.6689 5.89746 18.446 6.30298Q18.2231 6.70581 18.1909 7.1731ZM28.6255 10.6562L26.4368 2.65601L27.4224 2.65601L29.0928 9.17114L29.1707 9.17114L30.876 2.65601L31.969 2.65601L33.6716 9.17114L33.7495 9.17114L35.4226 2.65601L36.4055 2.65601L34.2195 10.6562L33.2178 10.6562L31.4534 4.28076L31.3916 4.28076L29.6245 10.6562L28.6255 10.6562ZM37.4839 10.6562L37.4839 4.65674L38.405 4.65674L38.405 10.6562L37.4839 10.6562ZM37.9539 3.65503Q37.6826 3.65503 37.4893 3.47241Q37.2959 3.28979 37.2959 3.03198Q37.2959 2.77417 37.4893 2.59155Q37.6826 2.40625 37.9539 2.40625Q38.2224 2.40625 38.4158 2.59155Q38.6091 2.77417 38.6091 3.03198Q38.6091 3.28979 38.4158 3.47241Q38.2224 3.65503 37.9539 3.65503ZM42.7654 4.65674L42.7654 5.43823L41.4226 5.43823L41.4226 10.6562L40.4988 10.6562L40.4988 5.43823L39.532 5.43823L39.532 4.65674L40.4988 4.65674L40.4988 3.8269Q40.4988 3.31128 40.7405 2.96753Q40.9849 2.62378 41.3716 2.4519Q41.7583 2.28003 42.188 2.28003Q42.5264 2.28003 42.7412 2.33643Q42.9561 2.39014 43.0635 2.43848L42.7976 3.2334Q42.7278 3.21191 42.6042 3.177Q42.4807 3.1394 42.282 3.1394Q41.8254 3.1394 41.624 3.37036Q41.4226 3.60132 41.4226 4.04712L41.4226 4.65674L42.7654 4.65674ZM44.062 10.6562L44.062 4.65674L44.9832 4.65674L44.9832 10.6562L44.062 10.6562ZM44.532 3.65503Q44.2607 3.65503 44.0674 3.47241Q43.874 3.28979 43.874 3.03198Q43.874 2.77417 44.0674 2.59155Q44.2607 2.40625 44.532 2.40625Q44.8005 2.40625 44.9939 2.59155Q45.1873 2.77417 45.1873 3.03198Q45.1873 3.28979 44.9939 3.47241Q44.8005 3.65503 44.532 3.65503Z" fill="#757575" transform="translate(32 5)" />
    </g>
    <g id="Group 16" transform="translate(565 0)">
      <g>
        <rect width="24" height="24" />
        <path id="Shape" d="M18 3.707L12.414 3.707L14.707 1.414L13.293 0L10 3.293L6.707 0L5.293 1.414L7.586 3.707L2 3.707C0.897 3.707 0 4.604 0 5.707L0 16.707C0 17.81 0.897 18.707 2 18.707L18 18.707C19.103 18.707 20 17.81 20 16.707L20 5.707C20 4.604 19.103 3.707 18 3.707L18 3.707ZM2 16.707L2 5.70703L18 5.70703L18.002 16.707L2 16.707L2 16.707Z" fill="#757575" fill-rule="evenodd" transform="translate(2 2.293)" />
      </g>
      <path d="M0.580078 3.83496L0.580078 2.89746L7.125 2.89746L7.125 3.83496L4.37988 3.83496L4.37988 11.625L3.3252 11.625L3.3252 3.83496L0.580078 3.83496ZM10.415 11.7627Q9.46875 11.7627 8.7832 11.3438Q8.10059 10.9219 7.73145 10.166Q7.3623 9.41016 7.3623 8.40234Q7.3623 7.39746 7.73145 6.62988Q8.10059 5.85938 8.7627 5.42871Q9.4248 4.99512 10.3125 4.99512Q10.8252 4.99512 11.3232 5.16504Q11.8213 5.33496 12.2285 5.71582Q12.6387 6.09668 12.8818 6.72363Q13.125 7.35059 13.125 8.26758L13.125 8.69238L8.37305 8.69238Q8.4082 9.74121 8.96777 10.3008Q9.52734 10.8574 10.415 10.8574Q11.0068 10.8574 11.4316 10.6025Q11.8594 10.3477 12.0498 9.83496L13.0225 10.1074Q12.7939 10.8486 12.1025 11.3057Q11.4111 11.7627 10.415 11.7627ZM8.37305 7.8252L12.1025 7.8252Q12.1025 6.99316 11.6162 6.44531Q11.1299 5.89746 10.3125 5.89746Q9.73828 5.89746 9.31641 6.16699Q8.89453 6.43359 8.65137 6.87598Q8.4082 7.31543 8.37305 7.8252ZM15.6634 2.89746L15.6634 11.625L14.6586 11.625L14.6586 2.89746L15.6634 2.89746ZM20.2503 11.7627Q19.304 11.7627 18.6184 11.3438Q17.9358 10.9219 17.5667 10.166Q17.1975 9.41016 17.1975 8.40234Q17.1975 7.39746 17.5667 6.62988Q17.9358 5.85938 18.5979 5.42871Q19.26 4.99512 20.1477 4.99512Q20.6604 4.99512 21.1585 5.16504Q21.6565 5.33496 22.0637 5.71582Q22.4739 6.09668 22.7171 6.72363Q22.9602 7.35059 22.9602 8.26758L22.9602 8.69238L18.2083 8.69238Q18.2434 9.74121 18.803 10.3008Q19.3626 10.8574 20.2503 10.8574Q20.8421 10.8574 21.2669 10.6025Q21.6946 10.3477 21.885 9.83496L22.8577 10.1074Q22.6292 10.8486 21.9378 11.3057Q21.2464 11.7627 20.2503 11.7627ZM18.2083 7.8252L21.9378 7.8252Q21.9378 6.99316 21.4514 6.44531Q20.9651 5.89746 20.1477 5.89746Q19.5735 5.89746 19.1516 6.16699Q18.7298 6.43359 18.4866 6.87598Q18.2434 7.31543 18.2083 7.8252ZM29.6418 5.08008L27.2219 11.625L26.1994 11.625L23.7795 5.08008L24.8693 5.08008L26.6769 10.2949L26.7443 10.2949L28.5519 5.08008L29.6418 5.08008ZM30.9711 11.625L30.9711 5.08008L31.9759 5.08008L31.9759 11.625L30.9711 11.625ZM31.4838 3.9873Q31.1879 3.9873 30.9769 3.78809Q30.766 3.58887 30.766 3.30762Q30.766 3.02637 30.9769 2.82715Q31.1879 2.625 31.4838 2.625Q31.7767 2.625 31.9877 2.82715Q32.1986 3.02637 32.1986 3.30762Q32.1986 3.58887 31.9877 3.78809Q31.7767 3.9873 31.4838 3.9873ZM38.4553 6.54492L37.5501 6.7998Q37.4182 6.45996 37.1077 6.16113Q36.7971 5.8623 36.135 5.8623Q35.5344 5.8623 35.136 6.1377Q34.7376 6.41309 34.7376 6.83496Q34.7376 7.20996 35.01 7.42676Q35.2854 7.64355 35.8626 7.79004L36.8352 8.02734Q38.5725 8.45508 38.5725 9.7998Q38.5725 10.3623 38.2503 10.8076Q37.9309 11.25 37.3538 11.5078Q36.7796 11.7627 36.0178 11.7627Q35.0159 11.7627 34.3596 11.3291Q33.7034 10.8926 33.5276 10.0576L34.4827 9.81738Q34.7522 10.875 36.0003 10.875Q36.7034 10.875 37.1194 10.5762Q37.5354 10.2744 37.5354 9.85254Q37.5354 9.1582 36.5628 8.93262L35.4729 8.6748Q34.5735 8.46387 34.1516 8.01562Q33.7327 7.56445 33.7327 6.8877Q33.7327 6.33105 34.0462 5.90625Q34.3596 5.48145 34.9016 5.23828Q35.4466 4.99512 36.135 4.99512Q37.1077 4.99512 37.6643 5.42285Q38.221 5.84766 38.4553 6.54492ZM40.0904 11.625L40.0904 5.08008L41.0953 5.08008L41.0953 11.625L40.0904 11.625ZM40.6031 3.9873Q40.3072 3.9873 40.0962 3.78809Q39.8853 3.58887 39.8853 3.30762Q39.8853 3.02637 40.0962 2.82715Q40.3072 2.625 40.6031 2.625Q40.896 2.625 41.107 2.82715Q41.3179 3.02637 41.3179 3.30762Q41.3179 3.58887 41.107 3.78809Q40.896 3.9873 40.6031 3.9873ZM45.5971 11.7627Q44.7094 11.7627 44.0415 11.3408Q43.3764 10.9189 43.0014 10.1602Q42.6294 9.40137 42.6294 8.3877Q42.6294 7.3623 43.0014 6.60059Q43.3764 5.83887 44.0415 5.41699Q44.7094 4.99512 45.5971 4.99512Q46.4819 4.99512 47.1499 5.41699Q47.8178 5.83887 48.1899 6.60059Q48.562 7.3623 48.562 8.3877Q48.562 9.40137 48.1899 10.1602Q47.8178 10.9189 47.1499 11.3408Q46.4819 11.7627 45.5971 11.7627ZM45.5971 10.8574Q46.271 10.8574 46.7045 10.5146Q47.1381 10.1689 47.3461 9.60645Q47.5571 9.04395 47.5571 8.3877Q47.5571 7.73145 47.3461 7.16602Q47.1381 6.59766 46.7045 6.24902Q46.271 5.89746 45.5971 5.89746Q44.9233 5.89746 44.4868 6.24902Q44.0532 6.59766 43.8452 7.16602Q43.6372 7.73145 43.6372 8.3877Q43.6372 9.04395 43.8452 9.60645Q44.0532 10.1689 44.4868 10.5146Q44.9233 10.8574 45.5971 10.8574ZM51.1009 7.6875L51.1009 11.625L50.0961 11.625L50.0961 5.08008L51.0687 5.08008L51.0687 6.10254L51.1537 6.10254Q51.3822 5.60449 51.8509 5.2998Q52.3197 4.99512 53.0638 4.99512Q54.0541 4.99512 54.6664 5.60449Q55.2787 6.21387 55.2787 7.46484L55.2787 11.625L54.2738 11.625L54.2738 7.53516Q54.2738 6.76172 53.8724 6.33105Q53.4711 5.89746 52.7738 5.89746Q52.0531 5.89746 51.5756 6.36621Q51.1009 6.83203 51.1009 7.6875Z" fill="#757575" transform="translate(32 5)" />
    </g>
    <g id="Group 13" transform="translate(0 54)">
      <g>
        <rect width="24" height="24" />
        <path id="Shape" d="M19 7L5 7L5 4C5 2.897 5.897 2 7 2C8.103 2 9 2.897 9 4L11 4C11 1.794 9.206 0 7 0C4.794 0 3 1.794 3 4L3 7L1 7C0.447715 7 0 7.44772 0 8L0 10C0 12.606 1.674 14.823 4 15.65L4 19L6 19L6 16L14 16L14 19L16 19L16 15.65C18.326 14.823 20 12.606 20 10L20 8C20 7.44771 19.5523 7 19 7L19 7ZM18 10C18 12.206 16.206 14 14 14L6 14C3.794 14 2 12.206 2 10L2 9L18 9L18 10L18 10Z" fill="#757575" fill-rule="evenodd" transform="translate(2 3)" />
      </g>
      <path d="M0.969482 10.6562L0.969482 2.65601L3.76514 2.65601Q4.60034 2.65601 5.14282 2.94336Q5.68799 3.23071 5.95386 3.71411Q6.21973 4.19482 6.21973 4.78027Q6.21973 5.2959 6.03711 5.63428Q5.85449 5.96997 5.55908 6.16602Q5.26636 6.35938 4.92261 6.45337L4.92261 6.53125Q5.28784 6.55542 5.65845 6.78906Q6.03174 7.02271 6.28149 7.46045Q6.53125 7.89819 6.53125 8.53198Q6.53125 9.13354 6.25732 9.61426Q5.9834 10.095 5.39258 10.377Q4.80444 10.6562 3.85913 10.6562L0.969482 10.6562ZM1.93628 9.79688L3.85913 9.79688Q4.80981 9.79688 5.20996 9.42896Q5.61011 9.05835 5.61011 8.53198Q5.61011 8.12378 5.40332 7.78003Q5.19653 7.43359 4.8125 7.22412Q4.42847 7.01465 3.90747 7.01465L1.93628 7.01465L1.93628 9.79688ZM1.93628 6.17139L3.7356 6.17139Q4.39087 6.17139 4.84204 5.79272Q5.2959 5.41406 5.2959 4.78027Q5.2959 4.25391 4.92798 3.88599Q4.56274 3.51538 3.76514 3.51538L1.93628 3.51538L1.93628 6.17139ZM9.7666 10.7959Q9.19458 10.7959 8.72998 10.5811Q8.26538 10.3635 7.99146 9.95264Q7.71753 9.53906 7.71753 8.95361Q7.71753 8.43799 7.92163 8.11572Q8.12573 7.79346 8.46411 7.61084Q8.80518 7.42554 9.21606 7.33423Q9.62964 7.24292 10.0459 7.18652Q10.5938 7.1167 10.9348 7.08179Q11.2786 7.04419 11.4343 6.95557Q11.5928 6.86426 11.5928 6.64136L11.5928 6.60913Q11.5928 6.03174 11.2786 5.71216Q10.9644 5.38989 10.3279 5.38989Q9.66724 5.38989 9.29126 5.67993Q8.91797 5.96997 8.76489 6.29761L7.8894 5.9834Q8.12573 5.43823 8.51782 5.13208Q8.90991 4.82324 9.3772 4.70239Q9.84448 4.57886 10.2957 4.57886Q10.5857 4.57886 10.9617 4.64868Q11.3403 4.71582 11.6921 4.92798Q12.0466 5.13745 12.2803 5.56445Q12.5166 5.98877 12.5166 6.70312L12.5166 10.6562L11.5928 10.6562L11.5928 9.84253L11.5471 9.84253Q11.4531 10.0386 11.2329 10.2615Q11.0154 10.4844 10.6528 10.6401Q10.2903 10.7959 9.7666 10.7959ZM9.90625 9.96875Q10.4541 9.96875 10.8301 9.75391Q11.2061 9.53906 11.3994 9.20068Q11.5928 8.85962 11.5928 8.48364L11.5928 7.64038Q11.5364 7.71021 11.3376 7.7666Q11.1416 7.823 10.8838 7.86597Q10.6287 7.90625 10.387 7.93579Q10.1479 7.96533 10.0002 7.98413Q9.64038 8.03247 9.32886 8.13721Q9.02002 8.23926 8.82935 8.44336Q8.64136 8.64746 8.64136 8.99927Q8.64136 9.47998 8.99854 9.72437Q9.35571 9.96875 9.90625 9.96875ZM16.813 4.65674L16.813 5.43823L15.532 5.43823L15.532 8.9375Q15.532 9.3269 15.6475 9.52026Q15.7629 9.71362 15.9429 9.77808Q16.1255 9.84253 16.3269 9.84253Q16.48 9.84253 16.5767 9.82642Q16.676 9.80762 16.7351 9.79688L16.9231 10.624Q16.8291 10.6589 16.6599 10.6965Q16.4934 10.7341 16.2356 10.7341Q15.8435 10.7341 15.4702 10.5676Q15.0969 10.3984 14.8525 10.0547Q14.6082 9.71094 14.6082 9.18726L14.6082 5.43823L13.7031 5.43823L13.7031 4.65674L14.6082 4.65674L14.6082 3.21997L15.532 3.21997L15.532 4.65674L16.813 4.65674ZM19.2488 7.04688L19.2488 10.6562L18.3276 10.6562L18.3276 2.65601L19.2488 2.65601L19.2488 5.59399L19.3293 5.59399Q19.5388 5.12939 19.9631 4.85547Q20.3875 4.57886 21.0938 4.57886Q22.0149 4.57886 22.5762 5.13477Q23.1401 5.68799 23.1401 6.84277L23.1401 10.6562L22.219 10.6562L22.219 6.90723Q22.219 6.19019 21.8484 5.7981Q21.4805 5.40601 20.8279 5.40601Q20.1458 5.40601 19.6973 5.83569Q19.2488 6.2627 19.2488 7.04688ZM27.438 4.65674L27.438 5.43823L26.157 5.43823L26.157 8.9375Q26.157 9.3269 26.2725 9.52026Q26.3879 9.71362 26.5679 9.77808Q26.7505 9.84253 26.9519 9.84253Q27.105 9.84253 27.2017 9.82642Q27.301 9.80762 27.3601 9.79688L27.5481 10.624Q27.4541 10.6589 27.2849 10.6965Q27.1184 10.7341 26.8606 10.7341Q26.4685 10.7341 26.0952 10.5676Q25.7219 10.3984 25.4775 10.0547Q25.2332 9.71094 25.2332 9.18726L25.2332 5.43823L24.3281 5.43823L24.3281 4.65674L25.2332 4.65674L25.2332 3.21997L26.157 3.21997L26.157 4.65674L27.438 4.65674ZM32.6089 8.20435L32.6089 4.65674L33.53 4.65674L33.53 10.6562L32.6089 10.6562L32.6089 9.64111L32.5471 9.64111Q32.335 10.0977 31.8892 10.4172Q31.446 10.7341 30.7666 10.7341Q29.9207 10.7341 29.3728 10.1755Q28.8276 9.61694 28.8276 8.46753L28.8276 4.65674L29.7488 4.65674L29.7488 8.40576Q29.7488 9.06372 30.1167 9.45312Q30.4873 9.84253 31.062 9.84253Q31.4058 9.84253 31.7629 9.66797Q32.1201 9.49341 32.3645 9.13086Q32.6089 8.76562 32.6089 8.20435ZM35.3445 10.6562L35.3445 2.65601L36.2656 2.65601L36.2656 5.61011L36.3435 5.61011Q36.4456 5.45435 36.6255 5.20996Q36.8081 4.96558 37.1492 4.77222Q37.4929 4.57886 38.0784 4.57886Q38.8357 4.57886 39.4131 4.95752Q39.9932 5.33618 40.3154 6.03174Q40.6404 6.72729 40.6404 7.67261Q40.6404 8.62598 40.3154 9.32422Q39.9932 10.0198 39.4185 10.4011Q38.8438 10.7825 38.0945 10.7825Q37.5144 10.7825 37.168 10.5891Q36.8215 10.3958 36.6335 10.1487Q36.4456 9.89893 36.3435 9.73511L36.2334 9.73511L36.2334 10.6562L35.3445 10.6562ZM36.2495 7.65649Q36.2495 8.677 36.6926 9.31616Q37.1357 9.95264 37.9683 9.95264Q38.5457 9.95264 38.9351 9.64648Q39.3245 9.34033 39.5205 8.81934Q39.7192 8.29565 39.7192 7.65649Q39.7192 7.02271 39.5259 6.51514Q39.3325 6.00488 38.9431 5.70679Q38.5537 5.40601 37.9683 5.40601Q37.125 5.40601 36.6873 6.02905Q36.2495 6.64941 36.2495 7.65649Z" fill="#757575" transform="translate(32 6)" />
    </g>
    <g id="Group 15" transform="translate(266 54)">
      <g>
        <rect width="24" height="24" />
        <path id="Shape" d="M14.7122 10.2932C14.5248 10.1055 14.2705 10 14.0052 10C13.74 10 13.4856 10.1055 13.2982 10.2932L11.7042 11.8872C10.9652 11.6672 9.58622 11.1672 8.71222 10.2932C7.83822 9.4192 7.33822 8.0402 7.11822 7.3012L8.71222 5.7072C8.89993 5.5198 9.00542 5.26545 9.00542 5.0002C9.00542 4.73496 8.89993 4.4806 8.71222 4.2932L4.71222 0.293201C4.52482 0.105485 4.27046 0 4.00522 0C3.73997 0 3.48561 0.105485 3.29822 0.293201L0.586216 3.0052C0.206217 3.3852 -0.00778365 3.9072 0.000216484 4.4402C0.0232165 5.8642 0.400217 10.8102 4.29822 14.7082C8.19622 18.6062 13.1422 18.9822 14.5672 19.0062L14.5952 19.0062C15.1232 19.0062 15.6222 18.7982 16.0002 18.4202L18.7122 15.7082C18.8999 15.5208 19.0054 15.2664 19.0054 15.0012C19.0054 14.736 18.8999 14.4816 18.7122 14.2942L14.7122 10.2932L14.7122 10.2932ZM14.5852 17.0052C13.3372 16.9842 9.06724 16.6492 5.71224 13.2932C2.34624 9.92719 2.02024 5.64219 2.00024 4.41919L4.00524 2.41418L6.59124 5.00019L5.29824 6.29319C5.05946 6.53179 4.95717 6.87476 5.02624 7.20518C5.05024 7.32018 5.63724 10.0472 7.29724 11.7072C8.95724 13.3672 11.6842 13.9542 11.7992 13.9782C12.1296 14.0492 12.4733 13.9471 12.7112 13.7072L14.0052 12.4142L16.5912 15.0002L14.5852 17.0052L14.5852 17.0052Z" fill="#757575" fill-rule="evenodd" transform="translate(2.995 2)" />
      </g>
      <path d="M2.42236 10.6562L0.233643 2.65601L1.21924 2.65601L2.88965 9.17114L2.96753 9.17114L4.67285 2.65601L5.76587 2.65601L7.46851 9.17114L7.54639 9.17114L9.21948 2.65601L10.2024 2.65601L8.01636 10.6562L7.01465 10.6562L5.25024 4.28076L5.18848 4.28076L3.42139 10.6562L2.42236 10.6562ZM12.4854 10.7959Q11.9133 10.7959 11.4487 10.5811Q10.9841 10.3635 10.7102 9.95264Q10.4363 9.53906 10.4363 8.95361Q10.4363 8.43799 10.6404 8.11572Q10.8445 7.79346 11.1829 7.61084Q11.5239 7.42554 11.9348 7.33423Q12.3484 7.24292 12.7646 7.18652Q13.3125 7.1167 13.6536 7.08179Q13.9973 7.04419 14.1531 6.95557Q14.3115 6.86426 14.3115 6.64136L14.3115 6.60913Q14.3115 6.03174 13.9973 5.71216Q13.6831 5.38989 13.0466 5.38989Q12.386 5.38989 12.01 5.67993Q11.6367 5.96997 11.4836 6.29761L10.6082 5.9834Q10.8445 5.43823 11.2366 5.13208Q11.6287 4.82324 12.0959 4.70239Q12.5632 4.57886 13.0144 4.57886Q13.3044 4.57886 13.6804 4.64868Q14.0591 4.71582 14.4109 4.92798Q14.7654 5.13745 14.999 5.56445Q15.2354 5.98877 15.2354 6.70312L15.2354 10.6562L14.3115 10.6562L14.3115 9.84253L14.2659 9.84253Q14.1719 10.0386 13.9517 10.2615Q13.7341 10.4844 13.3716 10.6401Q13.009 10.7959 12.4854 10.7959ZM12.625 9.96875Q13.1729 9.96875 13.5488 9.75391Q13.9248 9.53906 14.1182 9.20068Q14.3115 8.85962 14.3115 8.48364L14.3115 7.64038Q14.2551 7.71021 14.0564 7.7666Q13.8604 7.823 13.6025 7.86597Q13.3474 7.90625 13.1057 7.93579Q12.8667 7.96533 12.719 7.98413Q12.3591 8.03247 12.0476 8.13721Q11.7388 8.23926 11.5481 8.44336Q11.3601 8.64746 11.3601 8.99927Q11.3601 9.47998 11.7173 9.72437Q12.0745 9.96875 12.625 9.96875ZM16.9214 10.6562L16.9214 2.65601L17.8425 2.65601L17.8425 7.32886L17.9526 7.32886L20.5791 4.65674L21.7178 4.65674L19.1826 7.21875L21.9058 10.6562L20.7349 10.6562L18.4871 7.81226L17.8425 8.41113L17.8425 10.6562L16.9214 10.6562ZM25.1721 10.7825Q24.3047 10.7825 23.6763 10.3984Q23.0505 10.0117 22.7122 9.31885Q22.3738 8.62598 22.3738 7.70215Q22.3738 6.78101 22.7122 6.07739Q23.0505 5.37109 23.6575 4.97632Q24.2644 4.57886 25.0781 4.57886Q25.5481 4.57886 26.0046 4.73462Q26.4612 4.89038 26.8345 5.2395Q27.2104 5.58862 27.4333 6.16333Q27.6562 6.73804 27.6562 7.57861L27.6562 7.96802L23.3003 7.96802Q23.3325 8.92944 23.8455 9.44238Q24.3584 9.95264 25.1721 9.95264Q25.7146 9.95264 26.104 9.71899Q26.4961 9.48535 26.6707 9.01538L27.5623 9.26514Q27.3528 9.94458 26.719 10.3635Q26.0852 10.7825 25.1721 10.7825ZM23.3003 7.1731L26.719 7.1731Q26.719 6.4104 26.2732 5.9082Q25.8274 5.40601 25.0781 5.40601Q24.5518 5.40601 24.165 5.65308Q23.7783 5.89746 23.5554 6.30298Q23.3325 6.70581 23.3003 7.1731ZM37.5322 2.65601L38.499 2.65601L38.499 7.9519Q38.499 8.77368 38.115 9.41553Q37.731 10.0574 37.03 10.428Q36.3318 10.7959 35.3918 10.7959Q34.4492 10.7959 33.7483 10.428Q33.05 10.0574 32.666 9.41553Q32.282 8.77368 32.282 7.9519L32.282 2.65601L33.2488 2.65601L33.2488 7.87402Q33.2488 8.75488 33.8181 9.32422Q34.3901 9.89087 35.3918 9.89087Q36.3936 9.89087 36.9629 9.32422Q37.5322 8.75488 37.5322 7.87402L37.5322 2.65601ZM40.312 12.9067L40.312 4.65674L41.2036 4.65674L41.2036 5.61011L41.3137 5.61011Q41.4131 5.45435 41.5957 5.20996Q41.7783 4.96558 42.1194 4.77222Q42.4604 4.57886 43.0459 4.57886Q43.8059 4.57886 44.3833 4.95752Q44.9607 5.33618 45.2856 6.03174Q45.6106 6.72729 45.6106 7.67261Q45.6106 8.62598 45.2856 9.32422Q44.9607 10.0198 44.386 10.4011Q43.8113 10.7825 43.062 10.7825Q42.4846 10.7825 42.1355 10.5891Q41.7891 10.3958 41.6011 10.1487Q41.4131 9.89893 41.3137 9.73511L41.2332 9.73511L41.2332 12.9067L40.312 12.9067ZM41.2197 7.65649Q41.2197 8.677 41.6628 9.31616Q42.106 9.95264 42.9385 9.95264Q43.5159 9.95264 43.9026 9.64648Q44.292 9.34033 44.488 8.81934Q44.6868 8.29565 44.6868 7.65649Q44.6868 7.02271 44.4934 6.51514Q44.3 6.00488 43.9106 5.70679Q43.5239 5.40601 42.9385 5.40601Q42.0925 5.40601 41.6548 6.02905Q41.2197 6.64941 41.2197 7.65649ZM56.6724 5.15625L55.7029 5.15625Q55.5847 4.60034 55.2517 4.22168Q54.9214 3.84302 54.4514 3.64966Q53.9841 3.45361 53.4524 3.45361Q52.7273 3.45361 52.1392 3.82153Q51.551 4.18677 51.2046 4.90381Q50.8582 5.61816 50.8582 6.65747Q50.8582 7.69409 51.2046 8.41113Q51.551 9.12549 52.1392 9.49341Q52.7273 9.85864 53.4524 9.85864Q53.9841 9.85864 54.4514 9.66528Q54.9214 9.46924 55.2517 9.09058Q55.5847 8.71191 55.7029 8.15601L56.6724 8.15601Q56.5247 8.97778 56.0654 9.56055Q55.6089 10.1433 54.9321 10.4548Q54.2581 10.7664 53.4524 10.7664Q52.4292 10.7664 51.6316 10.2668Q50.8367 9.76465 50.3774 8.84351Q49.9209 7.92236 49.9209 6.65747Q49.9209 5.38989 50.3774 4.46875Q50.8367 3.54761 51.6316 3.0481Q52.4292 2.5459 53.4524 2.5459Q54.2581 2.5459 54.9321 2.85742Q55.6089 3.16895 56.0654 3.75439Q56.5247 4.33716 56.6724 5.15625ZM59.876 10.7959Q59.304 10.7959 58.8394 10.5811Q58.3748 10.3635 58.1008 9.95264Q57.8269 9.53906 57.8269 8.95361Q57.8269 8.43799 58.031 8.11572Q58.2351 7.79346 58.5735 7.61084Q58.9146 7.42554 59.3254 7.33423Q59.739 7.24292 60.1553 7.18652Q60.7031 7.1167 61.0442 7.08179Q61.3879 7.04419 61.5437 6.95557Q61.7021 6.86426 61.7021 6.64136L61.7021 6.60913Q61.7021 6.03174 61.3879 5.71216Q61.0737 5.38989 60.4373 5.38989Q59.7766 5.38989 59.4006 5.67993Q59.0273 5.96997 58.8743 6.29761L57.9988 5.9834Q58.2351 5.43823 58.6272 5.13208Q59.0193 4.82324 59.4866 4.70239Q59.9539 4.57886 60.405 4.57886Q60.6951 4.57886 61.071 4.64868Q61.4497 4.71582 61.8015 4.92798Q62.156 5.13745 62.3896 5.56445Q62.626 5.98877 62.626 6.70312L62.626 10.6562L61.7021 10.6562L61.7021 9.84253L61.6565 9.84253Q61.5625 10.0386 61.3423 10.2615Q61.1248 10.4844 60.7622 10.6401Q60.3997 10.7959 59.876 10.7959ZM60.0156 9.96875Q60.5635 9.96875 60.9395 9.75391Q61.3154 9.53906 61.5088 9.20068Q61.7021 8.85962 61.7021 8.48364L61.7021 7.64038Q61.6458 7.71021 61.447 7.7666Q61.251 7.823 60.9932 7.86597Q60.738 7.90625 60.4963 7.93579Q60.2573 7.96533 60.1096 7.98413Q59.7498 8.03247 59.4382 8.13721Q59.1294 8.23926 58.9387 8.44336Q58.7507 8.64746 58.7507 8.99927Q58.7507 9.47998 59.1079 9.72437Q59.4651 9.96875 60.0156 9.96875ZM65.2332 2.65601L65.2332 10.6562L64.312 10.6562L64.312 2.65601L65.2332 2.65601ZM67.8425 2.65601L67.8425 10.6562L66.9214 10.6562L66.9214 2.65601L67.8425 2.65601Z" fill="#757575" transform="translate(32 6)" />
    </g>
    <g id="Group 17" transform="translate(565.5 54)">
      <g>
        <rect width="24" height="24" />
        <path id="Shape" d="M8 7L6 7L6 0L4 0L4 7L2 7L2 0L0 0L0 8C0 9.654 1.346 11 3 11L4 11L4 18L6 18L6 11L7 11C8.654 11 10 9.654 10 8L10 0L8 0L8 7L8 7ZM15 0L14 0C12.841 0 12 1.262 12 3L12 11L14 11L14 18L16 18L16 1C16 0.447715 15.5523 0 15 0L15 0Z" fill="#757575" fill-rule="evenodd" transform="translate(4 3)" />
      </g>
      <path d="M1.05762 11.625L1.05762 2.89746L4.00488 2.89746Q5.02734 2.89746 5.68359 3.24609Q6.33984 3.5918 6.65625 4.19824Q6.97266 4.80176 6.97266 5.5752Q6.97266 6.44238 6.57422 7.08984Q6.17578 7.73438 5.34082 8.01855L7.3125 11.625L6.08496 11.625L4.24512 8.21191Q4.13672 8.21484 4.02246 8.21484L2.1123 8.21484L2.1123 11.625L1.05762 11.625ZM2.1123 7.2627L3.9873 7.2627Q5.03613 7.2627 5.48438 6.81152Q5.93262 6.35742 5.93262 5.5752Q5.93262 4.78418 5.48145 4.30957Q5.0332 3.83496 3.97266 3.83496L2.1123 3.83496L2.1123 7.2627ZM11.2673 11.7627Q10.321 11.7627 9.63548 11.3438Q8.95286 10.9219 8.58372 10.166Q8.21458 9.41016 8.21458 8.40234Q8.21458 7.39746 8.58372 6.62988Q8.95286 5.85938 9.61497 5.42871Q10.2771 4.99512 11.1648 4.99512Q11.6775 4.99512 12.1755 5.16504Q12.6736 5.33496 13.0808 5.71582Q13.4909 6.09668 13.7341 6.72363Q13.9773 7.35059 13.9773 8.26758L13.9773 8.69238L9.22532 8.69238Q9.26048 9.74121 9.82005 10.3008Q10.3796 10.8574 11.2673 10.8574Q11.8591 10.8574 12.2839 10.6025Q12.7116 10.3477 12.9021 9.83496L13.8747 10.1074Q13.6462 10.8486 12.9548 11.3057Q12.2634 11.7627 11.2673 11.7627ZM9.22532 7.8252L12.9548 7.8252Q12.9548 6.99316 12.4685 6.44531Q11.9822 5.89746 11.1648 5.89746Q10.5906 5.89746 10.1687 6.16699Q9.7468 6.43359 9.50364 6.87598Q9.26048 7.31543 9.22532 7.8252ZM20.1485 6.54492L19.2433 6.7998Q19.1114 6.45996 18.8009 6.16113Q18.4903 5.8623 17.8282 5.8623Q17.2276 5.8623 16.8292 6.1377Q16.4308 6.41309 16.4308 6.83496Q16.4308 7.20996 16.7032 7.42676Q16.9786 7.64355 17.5558 7.79004L18.5284 8.02734Q20.2657 8.45508 20.2657 9.7998Q20.2657 10.3623 19.9434 10.8076Q19.6241 11.25 19.047 11.5078Q18.4727 11.7627 17.711 11.7627Q16.7091 11.7627 16.0528 11.3291Q15.3966 10.8926 15.2208 10.0576L16.1759 9.81738Q16.4454 10.875 17.6934 10.875Q18.3966 10.875 18.8126 10.5762Q19.2286 10.2744 19.2286 9.85254Q19.2286 9.1582 18.2559 8.93262L17.1661 8.6748Q16.2667 8.46387 15.8448 8.01562Q15.4259 7.56445 15.4259 6.8877Q15.4259 6.33105 15.7393 5.90625Q16.0528 5.48145 16.5948 5.23828Q17.1397 4.99512 17.8282 4.99512Q18.8009 4.99512 19.3575 5.42285Q19.9142 5.84766 20.1485 6.54492ZM24.6312 5.08008L24.6312 5.93262L23.2338 5.93262L23.2338 9.75Q23.2338 10.1748 23.3597 10.3857Q23.4857 10.5967 23.682 10.667Q23.8812 10.7373 24.1009 10.7373Q24.2679 10.7373 24.3734 10.7197Q24.4818 10.6992 24.5463 10.6875L24.7513 11.5898Q24.6488 11.6279 24.4642 11.6689Q24.2826 11.71 24.0013 11.71Q23.5736 11.71 23.1664 11.5283Q22.7591 11.3438 22.4925 10.9688Q22.2259 10.5938 22.2259 10.0225L22.2259 5.93262L21.2386 5.93262L21.2386 5.08008L22.2259 5.08008L22.2259 3.5127L23.2338 3.5127L23.2338 5.08008L24.6312 5.08008ZM30.2722 8.9502L30.2722 5.08008L31.2771 5.08008L31.2771 11.625L30.2722 11.625L30.2722 10.5176L30.2048 10.5176Q29.9734 11.0156 29.487 11.3643Q29.0036 11.71 28.2624 11.71Q27.3396 11.71 26.7419 11.1006Q26.1472 10.4912 26.1472 9.2373L26.1472 5.08008L27.1521 5.08008L27.1521 9.16992Q27.1521 9.8877 27.5534 10.3125Q27.9577 10.7373 28.5847 10.7373Q28.9597 10.7373 29.3493 10.5469Q29.739 10.3564 30.0056 9.96094Q30.2722 9.5625 30.2722 8.9502ZM33.1188 11.625L33.1188 5.08008L34.0914 5.08008L34.0914 6.06738L34.1588 6.06738Q34.3375 5.58105 34.8063 5.2793Q35.275 4.97754 35.8639 4.97754Q35.9752 4.97754 36.1393 4.9834Q36.3063 4.98633 36.3912 4.99512L36.3912 6.01758Q36.3414 6.00293 36.1598 5.97656Q35.9782 5.9502 35.7789 5.9502Q35.0612 5.9502 34.5924 6.38379Q34.1237 6.81738 34.1237 7.48242L34.1237 11.625L33.1188 11.625ZM39.5124 11.7773Q38.8884 11.7773 38.3816 11.543Q37.8747 11.3057 37.5759 10.8574Q37.2771 10.4062 37.2771 9.76758Q37.2771 9.20508 37.4997 8.85352Q37.7224 8.50195 38.0915 8.30273Q38.4636 8.10059 38.9118 8.00098Q39.363 7.90137 39.8171 7.83984Q40.4148 7.76367 40.7868 7.72559Q41.1618 7.68457 41.3318 7.58789Q41.5046 7.48828 41.5046 7.24512L41.5046 7.20996Q41.5046 6.58008 41.1618 6.23145Q40.8191 5.87988 40.1247 5.87988Q39.404 5.87988 38.9939 6.19629Q38.5866 6.5127 38.4197 6.87012L37.4646 6.52734Q37.7224 5.93262 38.1501 5.59863Q38.5779 5.26172 39.0876 5.12988Q39.5974 4.99512 40.0896 4.99512Q40.406 4.99512 40.8161 5.07129Q41.2292 5.14453 41.613 5.37598Q41.9997 5.60449 42.2546 6.07031Q42.5124 6.5332 42.5124 7.3125L42.5124 11.625L41.5046 11.625L41.5046 10.7373L41.4548 10.7373Q41.3523 10.9512 41.112 11.1943Q40.8747 11.4375 40.4792 11.6074Q40.0837 11.7773 39.5124 11.7773ZM39.6648 10.875Q40.2624 10.875 40.6726 10.6406Q41.0827 10.4062 41.2937 10.0371Q41.5046 9.66504 41.5046 9.25488L41.5046 8.33496Q41.4431 8.41113 41.2263 8.47266Q41.0124 8.53418 40.7312 8.58105Q40.4529 8.625 40.1892 8.65723Q39.9284 8.68945 39.7673 8.70996Q39.3747 8.7627 39.0349 8.87695Q38.698 8.98828 38.49 9.21094Q38.2849 9.43359 38.2849 9.81738Q38.2849 10.3418 38.6745 10.6084Q39.0642 10.875 39.6648 10.875ZM45.3566 7.6875L45.3566 11.625L44.3517 11.625L44.3517 5.08008L45.3244 5.08008L45.3244 6.10254L45.4094 6.10254Q45.6379 5.60449 46.1066 5.2998Q46.5754 4.99512 47.3195 4.99512Q48.3097 4.99512 48.9221 5.60449Q49.5344 6.21387 49.5344 7.46484L49.5344 11.625L48.5295 11.625L48.5295 7.53516Q48.5295 6.76172 48.1281 6.33105Q47.7267 5.89746 47.0295 5.89746Q46.3088 5.89746 45.8312 6.36621Q45.3566 6.83203 45.3566 7.6875ZM54.2221 5.08008L54.2221 5.93262L52.8247 5.93262L52.8247 9.75Q52.8247 10.1748 52.9506 10.3857Q53.0766 10.5967 53.2729 10.667Q53.4721 10.7373 53.6918 10.7373Q53.8588 10.7373 53.9643 10.7197Q54.0727 10.6992 54.1372 10.6875L54.3422 11.5898Q54.2397 11.6279 54.0551 11.6689Q53.8735 11.71 53.5922 11.71Q53.1645 11.71 52.7573 11.5283Q52.3501 11.3438 52.0835 10.9688Q51.8168 10.5938 51.8168 10.0225L51.8168 5.93262L50.8295 5.93262L50.8295 5.08008L51.8168 5.08008L51.8168 3.5127L52.8247 3.5127L52.8247 5.08008L54.2221 5.08008Z" fill="#757575" transform="translate(32 5)" />
    </g>
    <g id="Group 14" transform="translate(266 0)">
      <g>
        <rect width="24" height="24" />
        <path id="Circle" d="M0 2.002C0 0.896326 0.896326 0 2.002 0C3.10767 0 4.004 0.896326 4.004 2.002C4.004 3.10767 3.10767 4.004 2.002 4.004C0.896326 4.004 0 3.10767 0 2.002Z" fill="#757575" fill-rule="evenodd" transform="translate(17.001 4)" />
        <path id="Shape" d="M16.875 10.2142C16.308 10.6672 15.897 10.9952 14.997 10.9952C14.098 10.9952 13.709 10.6842 13.121 10.2142C12.441 9.67124 11.596 8.99524 9.994 8.99524C8.393 8.99524 7.549 9.67124 6.87 10.2142C6.282 10.6842 5.895 10.9952 4.995 10.9952C4.097 10.9952 3.709 10.6842 3.122 10.2152C2.443 9.67124 1.6 8.99524 0 8.99524L0 10.9952C0.897 10.9952 1.285 11.3062 1.872 11.7752C2.551 12.3192 3.395 12.9952 4.995 12.9952C6.595 12.9952 7.441 12.3192 8.12 11.7752C8.707 11.3052 9.096 10.9952 9.994 10.9952C10.894 10.9952 11.305 11.3232 11.872 11.7762C12.551 12.3192 13.396 12.9952 14.997 12.9952C16.599 12.9952 17.444 12.3192 18.124 11.7762C18.712 11.3062 19.101 10.9952 20 10.9952L20 8.99524C18.399 8.99524 17.554 9.67124 16.875 10.2142L16.875 10.2142ZM14.997 15.9952C14.098 15.9952 13.709 15.6842 13.121 15.2142C12.441 14.6712 11.596 13.9952 9.994 13.9952C8.393 13.9952 7.549 14.6712 6.87 15.2142C6.282 15.6842 5.895 15.9952 4.995 15.9952C4.097 15.9952 3.709 15.6842 3.122 15.2152C2.443 14.6712 1.6 13.9952 0 13.9952L0 15.9952C0.897 15.9952 1.285 16.3062 1.872 16.7752C2.551 17.3192 3.395 17.9952 4.995 17.9952C6.595 17.9952 7.441 17.3192 8.12 16.7752C8.707 16.3052 9.096 15.9952 9.994 15.9952C10.894 15.9952 11.305 16.3232 11.872 16.7762C12.551 17.3192 13.396 17.9952 14.997 17.9952C16.599 17.9952 17.444 17.3192 18.124 16.7762C18.712 16.3062 19.101 15.9952 20 15.9952L20 13.9952C18.399 13.9952 17.554 14.6712 16.875 15.2142C16.308 15.6672 15.897 15.9952 14.997 15.9952L14.997 15.9952ZM8.99997 2.4142L11.104 4.5182L9.04697 7.0882C9.33297 7.0322 9.64297 6.9952 9.99397 6.9952C11.596 6.9952 12.441 7.6712 13.121 8.2142C13.709 8.6842 14.098 8.9952 14.997 8.9952C15.897 8.9952 16.308 8.6672 16.875 8.2142C17.007 8.1092 17.149 7.9972 17.298 7.8882L15.202 5.7982L15.207 5.7932L9.70697 0.293201C9.51957 0.105485 9.26521 0 8.99997 0C8.73472 0 8.48037 0.105485 8.29297 0.293201L4.29297 4.2932L5.70697 5.7072L8.99997 2.4142L8.99997 2.4142Z" fill="#757575" fill-rule="evenodd" transform="translate(2 3.005)" />
      </g>
      <path d="M5.34424 4.65674Q5.27441 4.06323 4.77222 3.7356Q4.27271 3.40527 3.54761 3.40527Q2.75 3.40527 2.26392 3.78394Q1.78052 4.15991 1.78052 4.73462Q1.78052 5.16431 2.0437 5.42749Q2.30957 5.69067 2.66943 5.83838Q3.03198 5.9834 3.32739 6.06128L4.14111 6.28149Q4.45264 6.36206 4.83667 6.50708Q5.22339 6.6521 5.5752 6.90186Q5.92969 7.14893 6.16064 7.53564Q6.3916 7.92236 6.3916 8.48364Q6.3916 9.13354 6.05322 9.65723Q5.71484 10.1809 5.06763 10.4897Q4.4231 10.7959 3.49927 10.7959Q2.21021 10.7959 1.45288 10.189Q0.695557 9.57935 0.625732 8.59375L1.62476 8.59375Q1.66504 9.04761 1.93091 9.34302Q2.19946 9.63574 2.61035 9.78076Q3.02393 9.9231 3.49927 9.9231Q4.05518 9.9231 4.49561 9.74048Q4.93872 9.55786 5.19653 9.23291Q5.45435 8.90527 5.45435 8.46753Q5.45435 8.07007 5.23145 7.82031Q5.00854 7.57056 4.64331 7.41479Q4.28076 7.25903 3.85913 7.14087L2.87622 6.85889Q1.93628 6.59033 1.38843 6.09082Q0.843262 5.58862 0.843262 4.78027Q0.843262 4.10889 1.2085 3.60669Q1.57373 3.10449 2.19141 2.8252Q2.81177 2.5459 3.57715 2.5459Q4.35059 2.5459 4.95215 2.82251Q5.55371 3.09644 5.9082 3.57446Q6.2627 4.0498 6.28149 4.65674L5.34424 4.65674ZM9.21777 10.6562L7.3916 4.65674L8.3584 4.65674L9.65552 9.24902L9.71997 9.24902L11.001 4.65674L11.9839 4.65674L13.2488 9.2356L13.3132 9.2356L14.6104 4.65674L15.5771 4.65674L13.751 10.6562L12.8433 10.6562L11.53 6.04785L11.4387 6.04785L10.1255 10.6562L9.21777 10.6562ZM16.7964 10.6562L16.7964 4.65674L17.7175 4.65674L17.7175 10.6562L16.7964 10.6562ZM17.2664 3.65503Q16.9951 3.65503 16.8018 3.47241Q16.6084 3.28979 16.6084 3.03198Q16.6084 2.77417 16.8018 2.59155Q16.9951 2.40625 17.2664 2.40625Q17.5349 2.40625 17.7283 2.59155Q17.9216 2.77417 17.9216 3.03198Q17.9216 3.28979 17.7283 3.47241Q17.5349 3.65503 17.2664 3.65503ZM19.4058 10.6562L19.4058 4.65674L20.2974 4.65674L20.2974 5.59399L20.3752 5.59399Q20.5632 5.11328 20.9795 4.84741Q21.3984 4.57886 21.9839 4.57886Q22.5774 4.57886 22.9749 4.84741Q23.3723 5.11328 23.5925 5.59399L23.657 5.59399Q23.8879 5.12939 24.3472 4.85547Q24.8091 4.57886 25.4536 4.57886Q26.2566 4.57886 26.7695 5.08105Q27.2825 5.58325 27.2825 6.64136L27.2825 10.6562L26.3586 10.6562L26.3586 6.64136Q26.3586 5.97534 25.9961 5.69067Q25.6335 5.40601 25.1394 5.40601Q24.5083 5.40601 24.1592 5.78735Q23.8127 6.1687 23.8127 6.74878L23.8127 10.6562L22.8755 10.6562L22.8755 6.54736Q22.8755 6.03442 22.5425 5.72021Q22.2122 5.40601 21.6885 5.40601Q21.3286 5.40601 21.0171 5.59937Q20.7083 5.79004 20.5176 6.12842Q20.3269 6.46411 20.3269 6.90723L20.3269 10.6562L19.4058 10.6562ZM28.9683 10.6562L28.9683 4.65674L29.8599 4.65674L29.8599 5.59399L29.9377 5.59399Q30.1257 5.11328 30.542 4.84741Q30.9609 4.57886 31.5464 4.57886Q32.1399 4.57886 32.5374 4.84741Q32.9348 5.11328 33.155 5.59399L33.2195 5.59399Q33.4504 5.12939 33.9097 4.85547Q34.3716 4.57886 35.0161 4.57886Q35.8191 4.57886 36.332 5.08105Q36.845 5.58325 36.845 6.64136L36.845 10.6562L35.9211 10.6562L35.9211 6.64136Q35.9211 5.97534 35.5586 5.69067Q35.196 5.40601 34.7019 5.40601Q34.0708 5.40601 33.7217 5.78735Q33.3752 6.1687 33.3752 6.74878L33.3752 10.6562L32.438 10.6562L32.438 6.54736Q32.438 6.03442 32.105 5.72021Q31.7747 5.40601 31.251 5.40601Q30.8911 5.40601 30.5796 5.59937Q30.2708 5.79004 30.0801 6.12842Q29.8894 6.46411 29.8894 6.90723L29.8894 10.6562L28.9683 10.6562ZM38.5308 10.6562L38.5308 4.65674L39.4519 4.65674L39.4519 10.6562L38.5308 10.6562ZM39.0007 3.65503Q38.7295 3.65503 38.5361 3.47241Q38.3428 3.28979 38.3428 3.03198Q38.3428 2.77417 38.5361 2.59155Q38.7295 2.40625 39.0007 2.40625Q39.2693 2.40625 39.4626 2.59155Q39.656 2.77417 39.656 3.03198Q39.656 3.28979 39.4626 3.47241Q39.2693 3.65503 39.0007 3.65503ZM42.0613 7.04688L42.0613 10.6562L41.1401 10.6562L41.1401 4.65674L42.0317 4.65674L42.0317 5.59399L42.1096 5.59399Q42.3191 5.13745 42.7488 4.85815Q43.1785 4.57886 43.8606 4.57886Q44.7683 4.57886 45.3296 5.13745Q45.8909 5.69604 45.8909 6.84277L45.8909 10.6562L44.9697 10.6562L44.9697 6.90723Q44.9697 6.19824 44.6018 5.80347Q44.2339 5.40601 43.5947 5.40601Q42.9341 5.40601 42.4963 5.83569Q42.0613 6.2627 42.0613 7.04688ZM50 13.0303Q48.9956 13.0303 48.4102 12.665Q47.8274 12.2998 47.5481 11.8271L48.2812 11.3115Q48.4075 11.4753 48.5981 11.6875Q48.7888 11.9023 49.1218 12.0608Q49.4575 12.2192 50 12.2192Q50.7278 12.2192 51.2004 11.8674Q51.6731 11.5156 51.6731 10.7664L51.6731 9.54712L51.5925 9.54712Q51.4932 9.71094 51.3052 9.95264Q51.1199 10.1917 50.7734 10.377Q50.4297 10.5623 49.8442 10.5623Q49.1165 10.5623 48.5391 10.2185Q47.9644 9.87476 47.6287 9.21948Q47.2957 8.56152 47.2957 7.62427Q47.2957 6.70312 47.6206 6.01831Q47.9456 5.33081 48.5229 4.95483Q49.1003 4.57886 49.8604 4.57886Q50.4458 4.57886 50.7896 4.77222Q51.136 4.96558 51.3213 5.20996Q51.5066 5.45435 51.6086 5.61011L51.7026 5.61011L51.7026 4.65674L52.5942 4.65674L52.5942 10.8281Q52.5942 11.6016 52.2424 12.0876Q51.8933 12.5737 51.3052 12.802Q50.7197 13.0303 50 13.0303ZM49.9678 9.73511Q50.8003 9.73511 51.2434 9.17114Q51.6865 8.60449 51.6865 7.60815Q51.6865 6.63599 51.2488 6.021Q50.8137 5.40601 49.9678 5.40601Q49.3823 5.40601 48.9929 5.7041Q48.6062 5.99951 48.4128 6.50171Q48.2195 7.00122 48.2195 7.60815Q48.2195 8.5481 48.6599 9.1416Q49.1003 9.73511 49.9678 9.73511ZM57.5007 10.6562L57.5007 2.65601L60.2024 2.65601Q61.145 2.65601 61.7439 2.99438Q62.3428 3.33276 62.6328 3.90747Q62.9229 4.47949 62.9229 5.18848Q62.9229 5.89478 62.6355 6.47217Q62.3481 7.04956 61.7493 7.39331Q61.1531 7.73438 60.2185 7.73438L58.4675 7.73438L58.4675 10.6562L57.5007 10.6562ZM58.4675 6.875L60.1863 6.875Q61.1531 6.875 61.5613 6.3916Q61.9695 5.90552 61.9695 5.18848Q61.9695 4.46606 61.5586 3.99072Q61.1477 3.51538 60.1729 3.51538L58.4675 3.51538L58.4675 6.875ZM66.7349 10.7825Q65.9211 10.7825 65.3088 10.3958Q64.6992 10.009 64.3555 9.31348Q64.0144 8.61792 64.0144 7.68872Q64.0144 6.74878 64.3555 6.05054Q64.6992 5.35229 65.3088 4.96558Q65.9211 4.57886 66.7349 4.57886Q67.5459 4.57886 68.1582 4.96558Q68.7705 5.35229 69.1116 6.05054Q69.4526 6.74878 69.4526 7.68872Q69.4526 8.61792 69.1116 9.31348Q68.7705 10.009 68.1582 10.3958Q67.5459 10.7825 66.7349 10.7825ZM66.7349 9.95264Q67.3525 9.95264 67.75 9.63843Q68.1475 9.32153 68.3381 8.80591Q68.5315 8.29028 68.5315 7.68872Q68.5315 7.08716 68.3381 6.56885Q68.1475 6.04785 67.75 5.72827Q67.3525 5.40601 66.7349 5.40601Q66.1172 5.40601 65.717 5.72827Q65.3196 6.04785 65.1289 6.56885Q64.9382 7.08716 64.9382 7.68872Q64.9382 8.29028 65.1289 8.80591Q65.3196 9.32153 65.717 9.63843Q66.1172 9.95264 66.7349 9.95264ZM73.2974 10.7825Q72.4836 10.7825 71.8713 10.3958Q71.2617 10.009 70.918 9.31348Q70.5769 8.61792 70.5769 7.68872Q70.5769 6.74878 70.918 6.05054Q71.2617 5.35229 71.8713 4.96558Q72.4836 4.57886 73.2974 4.57886Q74.1084 4.57886 74.7207 4.96558Q75.333 5.35229 75.6741 6.05054Q76.0151 6.74878 76.0151 7.68872Q76.0151 8.61792 75.6741 9.31348Q75.333 10.009 74.7207 10.3958Q74.1084 10.7825 73.2974 10.7825ZM73.2974 9.95264Q73.915 9.95264 74.3125 9.63843Q74.71 9.32153 74.9006 8.80591Q75.094 8.29028 75.094 7.68872Q75.094 7.08716 74.9006 6.56885Q74.71 6.04785 74.3125 5.72827Q73.915 5.40601 73.2974 5.40601Q72.6797 5.40601 72.2795 5.72827Q71.8821 6.04785 71.6914 6.56885Q71.5007 7.08716 71.5007 7.68872Q71.5007 8.29028 71.6914 8.80591Q71.8821 9.32153 72.2795 9.63843Q72.6797 9.95264 73.2974 9.95264ZM78.3425 2.65601L78.3425 10.6562L77.4214 10.6562L77.4214 2.65601L78.3425 2.65601Z" fill="#757575" transform="translate(32 6)" />
    </g>
  </g>
</svg>