<svg width="195" height="19" viewBox="0 0 195 19" fill="none" xmlns="http://www.w3.org/2000/svg">
<path fill-rule="evenodd" clip-rule="evenodd" d="M9.33334 4.66664C12.0843 4.66664 14.651 5.71897 16.5612 7.6292L17.661 6.52942C15.4576 4.3252 12.4997 3.11108 9.33334 3.11108C6.16701 3.11186 3.20912 4.3252 1.00568 6.52942L2.10545 7.6292C4.01568 5.71897 6.58234 4.66664 9.33334 4.66664V4.66664ZM13.7441 11.1276C11.3532 8.73672 7.31345 8.73672 4.92256 11.1276L6.02234 12.2274C7.81667 10.4331 10.85 10.4331 12.6443 12.2274L13.7441 11.1276V11.1276Z" fill="#757575"/>
<path d="M15.8954 8.7834C12.3394 5.22585 6.32797 5.22585 2.77197 8.7834L3.87175 9.88318C6.83275 6.92218 11.8346 6.92218 14.7956 9.88318L15.8954 8.7834V8.7834Z" fill="#757575"/>
<circle cx="9.33333" cy="13.9999" r="1.55556" fill="#757575"/>
<path fill-rule="evenodd" clip-rule="evenodd" d="M50.8222 4.66667H46.4775L48.261 2.88323L47.1612 1.78345L44.6 4.34467L42.0388 1.78345L40.939 2.88323L42.7224 4.66667H38.3778C37.5199 4.66667 36.8222 5.36434 36.8222 6.22223V14.7778C36.8222 15.6357 37.5199 16.3333 38.3778 16.3333H50.8222C51.6801 16.3333 52.3778 15.6357 52.3778 14.7778V6.22223C52.3778 5.36434 51.6801 4.66667 50.8222 4.66667V4.66667ZM38.3778 14.7778V6.22225H50.8222L50.8238 14.7778H38.3778V14.7778Z" fill="#757575"/>
<path fill-rule="evenodd" clip-rule="evenodd" d="M157.4 7.7777H146.511V5.44436C146.511 4.58647 147.209 3.88881 148.067 3.88881C148.925 3.88881 149.622 4.58647 149.622 5.44436H151.178C151.178 3.72859 149.782 2.33325 148.067 2.33325C146.351 2.33325 144.956 3.72859 144.956 5.44436V7.7777H143.4C142.97 7.7777 142.622 8.12592 142.622 8.55548V10.111C142.622 12.1379 143.924 13.8623 145.733 14.5055V17.111H147.289V14.7777H153.511V17.111H155.067V14.5055C156.876 13.8623 158.178 12.1379 158.178 10.111V8.55548C158.178 8.12592 157.83 7.7777 157.4 7.7777V7.7777ZM156.622 10.111C156.622 11.8268 155.227 13.2221 153.511 13.2221H147.289C145.573 13.2221 144.178 11.8268 144.178 10.111V9.33325H156.622V10.111V10.111Z" fill="#757575"/>
<path fill-rule="evenodd" clip-rule="evenodd" d="M185.667 7.7777H184.111V2.33325H182.556V7.7777H181V2.33325H179.444V8.55547C179.444 9.84192 180.491 10.8888 181.778 10.8888H182.556V16.3333H184.111V10.8888H184.889C186.175 10.8888 187.222 9.84192 187.222 8.55547V2.33325H185.667V7.7777V7.7777ZM191.111 2.33325H190.333C189.432 2.33325 188.778 3.31481 188.778 4.66659V10.8888H190.333V16.3333H191.889V3.11103C191.889 2.68147 191.541 2.33325 191.111 2.33325V2.33325Z" fill="#757575"/>
<ellipse cx="120.58" cy="4.6682" rx="1.55711" ry="1.55711" fill="#757575"/>
<path fill-rule="evenodd" clip-rule="evenodd" d="M120.481 10.2815C120.04 10.6338 119.72 10.8889 119.02 10.8889C118.321 10.8889 118.018 10.647 117.561 10.2815C117.032 9.85914 116.375 9.33336 115.129 9.33336C113.883 9.33336 113.227 9.85914 112.699 10.2815C112.242 10.647 111.941 10.8889 111.241 10.8889C110.542 10.8889 110.24 10.647 109.784 10.2823C109.256 9.85914 108.6 9.33336 107.356 9.33336V10.8889C108.053 10.8889 108.355 11.1308 108.812 11.4956C109.34 11.9187 109.996 12.4445 111.241 12.4445C112.485 12.4445 113.143 11.9187 113.671 11.4956C114.128 11.13 114.43 10.8889 115.129 10.8889C115.829 10.8889 116.148 11.144 116.589 11.4964C117.117 11.9187 117.775 12.4445 119.02 12.4445C120.266 12.4445 120.923 11.9187 121.452 11.4964C121.909 11.1308 122.212 10.8889 122.911 10.8889V9.33336C121.666 9.33336 121.009 9.85914 120.481 10.2815V10.2815ZM119.02 14.7778C118.321 14.7778 118.018 14.5359 117.561 14.1704C117.032 13.748 116.375 13.2222 115.129 13.2222C113.883 13.2222 113.227 13.748 112.699 14.1704C112.242 14.5359 111.941 14.7778 111.241 14.7778C110.542 14.7778 110.24 14.5359 109.784 14.1711C109.256 13.748 108.6 13.2222 107.356 13.2222V14.7778C108.053 14.7778 108.355 15.0197 108.812 15.3845C109.34 15.8076 109.996 16.3334 111.241 16.3334C112.485 16.3334 113.143 15.8076 113.671 15.3845C114.128 15.0189 114.43 14.7778 115.129 14.7778C115.829 14.7778 116.148 15.0329 116.589 15.3853C117.117 15.8076 117.775 16.3334 119.02 16.3334C120.266 16.3334 120.923 15.8076 121.452 15.3853C121.909 15.0197 122.212 14.7778 122.911 14.7778V13.2222C121.666 13.2222 121.009 13.748 120.481 14.1704C120.04 14.5227 119.72 14.7778 119.02 14.7778V14.7778ZM114.356 4.21487L115.992 5.85132L114.392 7.8502C114.615 7.80665 114.856 7.77787 115.129 7.77787C116.375 7.77787 117.032 8.30365 117.561 8.72598C118.018 9.09154 118.321 9.33343 119.02 9.33343C119.72 9.33343 120.04 9.07832 120.481 8.72598C120.583 8.64432 120.694 8.5572 120.81 8.47243L119.179 6.84687L119.183 6.84298L114.905 2.5652C114.76 2.4192 114.562 2.33716 114.356 2.33716C114.149 2.33716 113.951 2.4192 113.806 2.5652L110.695 5.67632L111.794 6.77609L114.356 4.21487V4.21487Z" fill="#757575"/>
<path fill-rule="evenodd" clip-rule="evenodd" d="M84.3055 9.56124C84.1597 9.41524 83.9619 9.3332 83.7556 9.3332C83.5493 9.3332 83.3515 9.41524 83.2057 9.56124L81.966 10.801C81.3912 10.6299 80.3186 10.241 79.6388 9.56124C78.9591 8.88147 78.5702 7.80891 78.3991 7.23413L79.6388 5.99436C79.7848 5.8486 79.8669 5.65077 79.8669 5.44447C79.8669 5.23816 79.7848 5.04033 79.6388 4.89458L76.5277 1.78347C76.382 1.63746 76.1841 1.55542 75.9778 1.55542C75.7715 1.55542 75.5737 1.63746 75.428 1.78347L73.3186 3.8928C73.0231 4.18835 72.8566 4.59435 72.8628 5.00891C72.8807 6.11647 73.174 9.96335 76.2057 12.9951C79.2375 16.0269 83.0844 16.3194 84.1927 16.338H84.2145C84.6252 16.338 85.0133 16.1762 85.3073 15.8822L87.4166 13.7729C87.5626 13.6272 87.6447 13.4293 87.6447 13.223C87.6447 13.0167 87.5626 12.8189 87.4166 12.6731L84.3055 9.56124V9.56124ZM84.2067 14.7818C83.2361 14.7654 79.9149 14.5049 77.3055 11.8947C74.6875 9.27666 74.4339 5.94388 74.4184 4.99266L75.9778 3.43321L77.9892 5.44455L76.9835 6.45021C76.7978 6.6358 76.7182 6.90255 76.7719 7.15955C76.7906 7.24899 77.2472 9.36999 78.5383 10.6611C79.8294 11.9522 81.9504 12.4088 82.0398 12.4274C82.2968 12.4827 82.5641 12.4032 82.7492 12.2167L83.7556 11.211L85.7669 13.2223L84.2067 14.7818V14.7818Z" fill="#757575"/>
</svg>
