<svg xmlns="http://www.w3.org/2000/svg" viewBox="0 0 260.21 82.73"><title>Marriott International logo - Brandlogos.net</title><path d="M300.2,425.12V411.67h3v13.45h-3Zm18,0-6.51-8.55v8.55h-2.91V411.67h2.72l6.28,8.29v-8.29h2.91v13.45h-2.49Zm13.1-10.73v10.73h-3V414.4h-4.08v-2.73h11.11v2.73ZM339,425.12V411.67h10.12v2.63h-7.2V417h6.32v2.63h-6.32v2.88h7.28v2.63Zm23.24,0-2.89-4.3H357v4.31h-3V411.67h6.12c3.16,0,5.06,1.67,5.06,4.44v0a4.18,4.18,0,0,1-2.87,4.17l3.28,4.81Zm.06-8.86c0-1.28-.88-1.92-2.32-1.92H357v3.86h3c1.44,0,2.26-.77,2.26-1.9Zm17.25,8.86-6.5-8.55v8.55h-2.91V411.67h2.72l6.28,8.29v-8.29h2.91v13.45h-2.51Zm17.22,0-1.22-3h-5.68l-1.22,3h-3l5.75-13.55h2.72l5.75,13.55Zm-4.07-10-1.78,4.36h3.56Zm14.88-.73v10.73h-3V414.4h-4.08v-2.73h11.11v2.73Zm8,10.73V411.67h3v13.45Zm14.69.23a6.88,6.88,0,0,1-7.11-6.92v0a7.13,7.13,0,0,1,14.26,0v0a7,7,0,0,1-7.14,7Zm4.06-7a4.08,4.08,0,0,0-3.93-4.23h-.13a4,4,0,0,0-4,4.19v0a4.08,4.08,0,0,0,3.93,4.23h.13a4,4,0,0,0,4-4.19Zm17.32,6.73-6.5-8.55v8.55h-2.9V411.67h2.72l6.28,8.29v-8.29h2.91v13.45H451.6Zm17.22,0-1.22-3h-5.66l-1.22,3h-3l5.75-13.55h2.72l5.75,13.55Zm-4-10L463,419.49h3.56Zm10.47,10V411.67h3v10.76h6.69v2.69Z" transform="translate(-253.9 -342.63)"/><path d="M392.82,368.7a11.64,11.64,0,0,0-5.07-1.33,7.3,7.3,0,0,0-6.05,3.41v27.43H371V359.77h9.8l.61,4c.43-.7,3-4.85,8-4.85a10.81,10.81,0,0,1,3.37.58v9.18Zm25.4-9.18a10.82,10.82,0,0,0-3.37-.58c-5.06,0-7.6,4.15-8,4.85l-.61-4h-9.8v38.45h10.7V370.78a7.27,7.27,0,0,1,6.05-3.41,11.64,11.64,0,0,1,5.07,1.33ZM364.44,370.8v27.41h-9.82l-.61-4A13.32,13.32,0,0,1,343.69,399c-6.12,0-10.35-4.69-10.35-11,0-13.6,16-15.52,20.41-16V371c0-2.23-1.86-4.54-6.8-4.54a17.84,17.84,0,0,0-10,3.41v-7.93a30.23,30.23,0,0,1,13.37-3C360.19,358.93,364.44,363.44,364.44,370.8Zm-10.7,8.78c-3.4,0-9.61,1.17-9.61,6.55,0,2.73,1.86,4.69,4.2,4.69,3,0,5.42-2.18,5.42-7.1ZM295,348.37l9.62,20.71-3.78,8.1-16.05-34.54-12.23,5.72L282.19,369c-.75,1.61-2,4.23-3.92,8.41-4.4,9.43-7.8,12.07-13.82,12.07a15,15,0,0,1-4.86-.9l-5.7,12.26a24.6,24.6,0,0,0,9.11,1.9c7.13,0,12.37-4.65,16.92-14.45l5.61-12.07,10.2,22h14.88l-6.45-13.86,3.78-8.1,10.2,22H333l-25.8-55.61Zm213.66,11.4V347l-10.7,5v7.71h-3.43v6.69H498v31.76h10.7V366.45h5.43v-6.69Zm-86.45,38.45h10.7V359.77h-10.7ZM485.95,347l-10.7,5v7.71h-3.43v6.69h3.43v31.76h10.7V366.45h5.43v-6.69h-5.43Zm-16.63,28.78v6.32c0,9.16-4.46,16.9-15.43,16.9s-15.43-7.68-15.43-16.9v-6.32c0-9.2,4.46-16.9,15.43-16.9s15.43,7.73,15.43,16.9Zm-10.79-1.52c0-4.6-1.11-7.86-4.64-7.86s-4.64,3.26-4.64,7.86v9.38c0,4.6,1.09,7.86,4.64,7.86s4.64-3.26,4.64-7.86Z" transform="translate(-253.9 -342.63)"/></svg>